<svg xmlns="http://www.w3.org/2000/svg" viewBox="0 0 34 31"><path d="M28 10.5H5c-.3 0-.5-.2-.5-.5s.2-.5.5-.5h23c.3 0 .5.2.5.5s-.2.5-.5.5z"/><path d="M31 3.5h-3.5V1c0-.3-.2-.5-.5-.5s-.5.2-.5.5v2.5h-18V1c0-.3-.2-.5-.5-.5s-.5.2-.5.5v2.5H3C1.6 3.5.5 4.6.5 5.9v22.2c0 1.3 1.1 2.4 2.5 2.4h28c1.4 0 2.5-1.1 2.5-2.4V5.9c0-1.3-1.1-2.4-2.5-2.4zm1.5 24.6c0 .8-.7 1.4-1.5 1.4H3c-.8 0-1.5-.6-1.5-1.4V5.9c0-.8.7-1.4 1.5-1.4h4.5V6c0 .3.2.5.5.5s.5-.2.5-.5V4.5h18V6c0 .3.2.5.5.5s.5-.2.5-.5V4.5H31c.8 0 1.5.6 1.5 1.4v22.2z"/><path d="M24 22.5c-.1 0-.3 0-.4-.1l-4-4c-.2-.2-.2-.5 0-.7s.5-.2.7 0l4 4c.2.2.2.5 0 .7 0 .1-.2.1-.3.1z"/><path d="M24 22.5c-.1 0-.2 0-.2-.1-.2-.1-.3-.4-.2-.7l5-10c.1-.2.4-.3.7-.2.2.1.3.4.2.7l-5 10c-.1.2-.3.3-.5.3z"/><path d="M29.5 25.5h-13v-12h8.3c.3 0 .5.2.5.5s-.2.5-.5.5h-7.3v10h11v-4.4c0-.3.2-.5.5-.5s.5.2.5.5v5.4zM11.5 18.6c-.6 0-1 .4-1 1s.4 1 1 1 1-.4 1-1-.4-1-1-1zM6.5 18.6c-.6 0-1 .4-1 1s.4 1 1 1 1-.4 1-1-.4-1-1-1zM11.5 22.9c-.6 0-1 .4-1 1s.4 1 1 1 1-.4 1-1-.4-1-1-1zM6.5 22.9c-.6 0-1 .4-1 1s.4 1 1 1 1-.4 1-1-.4-1-1-1zM11.5 14.1c-.6 0-1 .4-1 1s.4 1 1 1 1-.4 1-1-.4-1-1-1zM6.5 14.1c-.6 0-1 .4-1 1s.4 1 1 1 1-.4 1-1-.4-1-1-1z"/></svg>