<svg xmlns="http://www.w3.org/2000/svg" viewBox="0 0 512 512"><path class="st0" d="M432.1 87.8c-35.2 0-63.9 28.6-63.9 63.9 0 18 7.6 34.2 19.6 45.8L326 296.6c-2-.2-4-.6-6-.6-3.9 0-7.7.5-11.5 1.2l-63.3-110.7c6.6-10 10.4-22 10.4-34.8 0-35.2-28.6-63.9-63.8-63.9S128 116.4 128 151.7c0 16.2 6.3 30.9 16.3 42.2-1.1 1.1-2.2 2-2.9 3.4l-55.9 99.3c-1.9-.2-3.8-.6-5.7-.6-35.2 0-63.8 28.6-63.8 63.8s28.6 63.9 63.9 63.9 63.8-28.7 63.8-63.9c0-21.1-10.4-39.7-26.2-51.3l53.3-94.8c.3-.6.4-1.3.6-1.9 6.5 2.2 13.3 3.7 20.5 3.7 9.9 0 19.2-2.5 27.5-6.5l58.8 102.9c-13.4 11.7-22.1 28.7-22.1 47.9 0 35.2 28.7 63.9 63.9 63.9s63.8-28.7 63.8-63.9c0-20.9-10.2-39.3-25.8-51l58.9-94.4c.2-.3.2-.6.3-.8 4.8 1.2 9.7 1.9 14.9 1.9 35.2 0 63.8-28.6 63.8-63.9s-28.6-63.8-63.8-63.8zM79.8 390.1c-16.7 0-30.2-13.6-30.2-30.2s13.6-30.2 30.2-30.2 30.2 13.6 30.2 30.2-13.5 30.2-30.2 30.2zm81.9-238.4c0-16.7 13.6-30.2 30.2-30.2s30.2 13.6 30.2 30.2c0 8.3-3.4 15.8-8.8 21.3-.1.1-.2.1-.2.2-5.5 5.4-12.9 8.7-21.2 8.7-16.7 0-30.2-13.6-30.2-30.2zM320 390.1c-16.7 0-30.2-13.6-30.2-30.2s13.6-30.2 30.2-30.2 30.2 13.6 30.2 30.2-13.5 30.2-30.2 30.2zm112.1-208.2c-16.7 0-30.2-13.6-30.2-30.2s13.6-30.2 30.2-30.2 30.2 13.6 30.2 30.2-13.5 30.2-30.2 30.2z"/></svg>