<svg xmlns="http://www.w3.org/2000/svg" viewBox="0 0 512 512"><path class="st0" d="M496 256c0-123-93.1-224.6-212.5-238.3-5.3-1-10.6-1.7-16.1-1.7-1.4 0-2.8.3-4.2.4-2.4-.1-4.8-.4-7.2-.4C123.7 16 16 123.7 16 256s107.7 240 240 240c2.4 0 4.8-.3 7.2-.4 1.4.1 2.8.4 4.2.4 5.5 0 10.8-.7 16.1-1.7C402.9 480.6 496 379 496 256zm-63.3 125.7h-48c9.4-27.2 15.8-58.1 18.4-91.4h67.1c-5.4 33.7-18.5 64.8-37.5 91.4zM282 471.1c-4.8.6-9.6 1.2-14.5 1.5v-68h82.4C332 440 308.3 464.4 282 471.1zm-96.9-66.5h59.5v64c-23-9.3-43.7-32.3-59.5-64zm-32-148.6c0-36.9 5.2-72 14.1-102.9h77.3v114.3h-91.1c-.1-3.8-.3-7.5-.3-11.4zm206.7-125.7h-92.4V39.4c5.2.3 10.2 1.1 15.2 1.7 31.4 8.4 59.1 41.9 77.2 89.2zM381.7 256c0 3.9-.2 7.6-.3 11.4h-114V153.1h100.1c9.1 30.9 14.2 66 14.2 102.9zM244.6 43.4v86.8h-69.5c16.6-43.4 41.3-75.4 69.5-86.8zm0 246.9v91.4h-69.5c-10.2-26.8-17.3-57.9-20.3-91.4h89.8zm22.8 91.4v-91.4H380c-2.9 33.5-10 64.6-20.3 91.4h-92.3zM473.1 256c0 3.9-.4 7.6-.6 11.4h-68.3c.1-3.8.3-7.6.3-11.4 0-37.1-4.7-71.8-12.9-102.9h55.5c16.6 30.7 26 65.7 26 102.9zm-40.4-125.7h-48c-9.7-28-22.5-52.2-37.8-70.9 34.3 15.9 64 40.3 85.8 70.9zM199.4 46.8c-20.3 19.9-37.2 48.7-49.2 83.5H79.3c28.8-40.4 71-70.2 120.1-83.5zM38.9 256c0-37.2 9.4-72.2 26-102.9h78.4c-8.2 31.1-12.9 65.8-12.9 102.9 0 3.9.2 7.6.3 11.4H39.4c-.2-3.8-.5-7.5-.5-11.4zm40.4 125.7c-19-26.7-32.1-57.7-37.4-91.4h89.9c2.6 33.3 9 64.2 18.4 91.4H79.3zm79.8 22.9c11 24.6 24.6 45.3 40.3 60.7-39.3-10.6-74.3-31.8-101.4-60.7h61.1zM346.6 453c11.1-13.5 20.9-29.8 29.1-48.4h38.2c-19 20.2-41.8 36.6-67.3 48.4z"/></svg>